<svg width="24" height="24" viewBox="0 0 24 24" fill="none" xmlns="http://www.w3.org/2000/svg" svg-inline="" alt="threads" role="presentation" focusable="false"><path d="M17.258 11.197a7.545 7.545 0 00-.288-.131c-.17-3.13-1.88-4.92-4.75-4.939h-.04c-1.717 0-3.145.733-4.024 2.067l1.58 1.083c.656-.997 1.686-1.209 2.445-1.209h.027c.945.006 1.658.281 2.12.817.336.39.56.93.672 1.61a12.085 12.085 0 00-2.714-.13c-2.73.156-4.484 1.748-4.366 3.96.06 1.122.619 2.087 1.574 2.718.807.533 1.847.794 2.928.735 1.428-.079 2.547-.623 3.329-1.62.593-.755.968-1.735 1.134-2.97.68.41 1.184.95 1.463 1.6.473 1.104.501 2.918-.98 4.397-1.296 1.296-2.855 1.857-5.211 1.874-2.614-.02-4.59-.858-5.876-2.491-1.203-1.53-1.825-3.74-1.848-6.568.023-2.828.645-5.038 1.848-6.568 1.285-1.633 3.262-2.471 5.875-2.49 2.633.019 4.644.86 5.978 2.502.655.805 1.148 1.818 1.473 2.998l1.85-.493c-.394-1.453-1.014-2.705-1.858-3.744-1.71-2.104-4.213-3.183-7.436-3.205h-.013c-3.217.022-5.69 1.105-7.353 3.217-1.478 1.88-2.241 4.496-2.267 7.775v.016c.026 3.279.789 5.895 2.267 7.775C6.46 21.895 8.933 22.978 12.15 23h.013c2.86-.02 4.876-.769 6.537-2.428 2.173-2.17 2.107-4.892 1.391-6.562-.514-1.198-1.493-2.17-2.833-2.813zm-4.938 4.642c-1.196.068-2.439-.47-2.5-1.62-.046-.852.607-1.803 2.573-1.917.226-.013.447-.02.664-.02.714 0 1.383.07 1.99.203-.226 2.83-1.556 3.29-2.727 3.354z" fill="#B3B3B3"></path></svg>