<svg width="24" height="24" viewBox="0 0 24 24" fill="none" xmlns="http://www.w3.org/2000/svg" svg-inline="" alt="tiktok" role="presentation" focusable="false" class="tiktok icon"><path d="M21.55 6.661c0-.096 0-.096-.11-.096-.246 0-.493-.027-.74-.062-.892-.13-3.787-1.565-4.274-3.913-.007-.048-.116-.632-.116-.879 0-.11 0-.11-.116-.11h-3.476c-.225 0-.195-.027-.195.192v13.945c0 .171-.008.343-.037.515-.174.899-.66 1.6-1.48 2.087-.711.419-1.488.535-2.315.384-.26-.048-.5-.144-.747-.233-.022-.014-.036-.035-.058-.048-.08-.062-.174-.117-.261-.179-1.052-.686-1.546-1.64-1.394-2.835.153-1.209.893-2.033 2.105-2.458.363-.124.74-.179 1.132-.158.246.014.493.041.74.11.087.02.13-.007.13-.09v-.089c0-.837-.036-2.657-.036-2.664 0-.24 0-.48.007-.72 0-.07-.036-.083-.094-.09a7.63 7.63 0 00-1.371-.027 7.128 7.128 0 00-1.85.37 6.955 6.955 0 00-2.519 1.497 6.468 6.468 0 00-1.465 1.991 6.302 6.302 0 00-.595 2.26c-.022.342-.022.679.014 1.022.044.474.138.934.29 1.387.436 1.297 1.227 2.355 2.351 3.2.117.082.225.178.363.233l.174.144c.182.13.378.24.58.336 1.256.59 2.584.831 3.984.666 1.815-.212 3.324-.968 4.514-2.28 1.117-1.235 1.661-2.677 1.676-4.297.014-2.314 0-4.627.007-6.941 0-.055-.036-.13.03-.165.05-.02.1.041.144.069a9.424 9.424 0 002.954 1.208c.616.137 1.24.213 1.879.213.203 0 .225-.007.225-.2-.007-.83-.05-3.075-.05-3.295z" fill="#999"></path></svg>