<svg width="24" height="24" viewBox="0 0 24 24" fill="none" xmlns="http://www.w3.org/2000/svg" svg-inline="" alt="youtube" role="presentation" focusable="false"><path d="M22.78 8.339s-.214-1.517-.876-2.183c-.838-.877-1.774-.881-2.204-.933C16.623 5 12.004 5 12.004 5h-.008s-4.62 0-7.696.223c-.43.052-1.366.056-2.204.933-.662.666-.873 2.183-.873 2.183S1 10.122 1 11.9v1.667c0 1.779.22 3.562.22 3.562s.214 1.517.871 2.183c.838.877 1.938.846 2.428.94 1.762.169 7.481.22 7.481.22s4.623-.008 7.7-.228c.43-.051 1.366-.056 2.204-.932.662-.666.877-2.183.877-2.183S23 15.351 23 13.568v-1.667c0-1.78-.22-3.562-.22-3.562zM9.728 15.592V9.409l5.942 3.102-5.942 3.08z" fill="#B3B3B3"></path></svg>