<svg width="24" height="24" viewBox="0 0 24 24" fill="none" xmlns="http://www.w3.org/2000/svg" svg-inline="" alt="discord" role="presentation" focusable="false" class="discord icon"><path d="M19.624 5.39a18.14 18.14 0 00-4.478-1.389.068.068 0 00-.072.034c-.194.344-.408.793-.558 1.146a16.748 16.748 0 00-5.03 0 11.59 11.59 0 00-.565-1.146.07.07 0 00-.072-.034c-1.572.27-3.075.745-4.478 1.389a.064.064 0 00-.03.025C1.49 9.676.708 13.833 1.091 17.937c.002.02.013.04.029.052a18.244 18.244 0 005.493 2.777.071.071 0 00.077-.025c.423-.578.8-1.188 1.124-1.828a.07.07 0 00-.038-.097 12.013 12.013 0 01-1.716-.818.07.07 0 01-.007-.117 9.37 9.37 0 00.34-.268.068.068 0 01.072-.01c3.6 1.645 7.498 1.645 11.056 0a.068.068 0 01.072.01c.11.09.226.181.342.268a.07.07 0 01-.006.117c-.548.32-1.118.59-1.717.817a.07.07 0 00-.038.098c.33.64.708 1.249 1.123 1.827a.07.07 0 00.078.026 18.183 18.183 0 005.502-2.777.071.071 0 00.028-.05c.459-4.746-.768-8.868-3.253-12.523a.055.055 0 00-.028-.026zM8.352 15.438c-1.084 0-1.977-.995-1.977-2.217 0-1.223.875-2.218 1.977-2.218 1.11 0 1.994 1.004 1.977 2.218 0 1.222-.876 2.217-1.977 2.217zm7.31 0c-1.084 0-1.977-.995-1.977-2.217 0-1.223.876-2.218 1.977-2.218 1.11 0 1.994 1.004 1.977 2.218 0 1.222-.867 2.217-1.977 2.217z" fill="#B3B3B3"></path></svg>