<svg width="24" height="24" viewBox="0 0 24 24" fill="none" xmlns="http://www.w3.org/2000/svg" svg-inline="" alt="instagram" role="presentation" focusable="false"><path d="M12.172 4.3c2.672 0 2.989.012 4.04.059.977.043 1.504.207 1.856.344.464.18.8.398 1.148.746.352.351.567.684.746 1.148.137.352.301.883.344 1.856.047 1.055.059 1.372.059 4.04 0 2.673-.012 2.989-.059 4.04-.043.977-.207 1.504-.344 1.856-.18.465-.398.8-.746 1.149a3.076 3.076 0 01-1.148.746c-.352.137-.883.3-1.856.344-1.055.046-1.372.058-4.04.058-2.673 0-2.989-.012-4.04-.058-.977-.043-1.504-.207-1.856-.344-.465-.18-.8-.399-1.148-.746a3.076 3.076 0 01-.747-1.15c-.136-.35-.3-.882-.344-1.855-.046-1.055-.058-1.371-.058-4.04 0-2.672.012-2.989.058-4.04.043-.976.208-1.504.344-1.856.18-.464.399-.8.747-1.148a3.076 3.076 0 011.148-.746c.352-.137.883-.301 1.856-.344 1.051-.047 1.367-.059 4.04-.059zm0-1.801c-2.716 0-3.055.012-4.122.059-1.063.047-1.793.218-2.426.465A4.882 4.882 0 003.85 4.179a4.9 4.9 0 00-1.157 1.77c-.246.637-.418 1.363-.464 2.426-.047 1.07-.06 1.41-.06 4.126 0 2.715.013 3.055.06 4.122.046 1.063.218 1.793.464 2.426.258.66.598 1.22 1.157 1.774a4.89 4.89 0 001.77 1.152c.637.247 1.363.418 2.426.465 1.067.047 1.407.059 4.122.059s3.055-.012 4.122-.059c1.063-.047 1.793-.218 2.426-.465a4.89 4.89 0 001.77-1.152 4.89 4.89 0 001.153-1.77c.246-.637.418-1.364.465-2.426.046-1.067.058-1.407.058-4.122s-.012-3.055-.058-4.122c-.047-1.063-.22-1.793-.465-2.426a4.686 4.686 0 00-1.145-1.778 4.889 4.889 0 00-1.77-1.153c-.637-.246-1.364-.418-2.426-.464-1.07-.051-1.41-.063-4.126-.063z" fill="#B3B3B3"></path><path d="M12.172 7.363a5.139 5.139 0 00-5.138 5.138 5.139 5.139 0 105.138-5.138zm0 8.47a3.333 3.333 0 110-6.666 3.333 3.333 0 010 6.667zM18.712 7.16a1.2 1.2 0 11-2.4 0 1.2 1.2 0 012.4 0z" fill="#B3B3B3"></path></svg>