<svg width="24" height="24" viewBox="0 0 24 24" fill="none" xmlns="http://www.w3.org/2000/svg" svg-inline="" alt="bag" role="presentation" focusable="false" class="svg-icon"><path fill-rule="evenodd" clip-rule="evenodd" d="M4.22 5.79l1.57 11.06h.806A2.078 2.078 0 008.38 20a2.078 2.078 0 001.783-3.153l7.428-.006A2.078 2.078 0 0019.37 20c1.149 0 2.079-.93 2.079-2.08 0-1.113-.871-2.02-1.97-2.077v-.003h-.124l-10.787.008a2.114 2.114 0 00-.381 0l-1.528.002L5.09 4.79H1.5v1h2.72zm14.07 12.13c0-.597.485-1.075 1.071-1.08h.017a1.075 1.075 0 011.072 1.08c0 .6-.48 1.08-1.08 1.08-.6 0-1.08-.48-1.08-1.08zM8.247 16.848h.266c.536.065.947.517.947 1.072 0 .6-.48 1.08-1.08 1.08-.6 0-1.08-.48-1.08-1.08 0-.554.418-1.006.947-1.072zM19.56 13.24l.77-5.37H7.89l.77 5.37h10.9zM6.74 6.87h14.73l-1.05 7.37H7.79L6.74 6.87z" fill="#F2F2F2"></path></svg>