<svg width="24" height="24" viewBox="0 0 24 24" fill="none" xmlns="http://www.w3.org/2000/svg" svg-inline="" alt="user" role="presentation" focusable="false" class="svg-icon"><path d="M12.613 18.28v2.1H22l-4.009-4.009.7-3.982v-.1c-.484-1.44-2.1-6.195-2.783-6.846a18.386 18.386 0 00-3.701-1.874L12 3.5l-.17.069A18.393 18.393 0 008.13 5.443c-.69.651-2.89 5.848-3.32 6.88l-.063.139 1.235 3.939L2 20.383h8.886V18.53l-2.873-1.718-.442.739 2.448 1.452v.507H4.094l2.795-3.123-1.215-4.121a50.59 50.59 0 012.97-6.447 15.671 15.671 0 013.107-1.614V10.304l3.332-.868c.633.85 1.17 1.766 1.6 2.733l-1.587 4.425-2.483 1.686z" fill="#F7F7F7"></path></svg>